# xmcd
#
# Track frame offsets:
#	150
#	15952
#	35261
#	50477
#	64619
#	81387
#	95328
#	114412
#	130538
#	145107
#	162651
#	182012
#	209261
#
# Disc length: 2796 seconds
#
# Revision: 1
# Processed by: cddbd v1.5.1PL0 Copyright (c) Steve Scherf et al.
# Submitted via: EasyCDDAExtractor 7.0.5.1
#
DISCID=a50aea0d
DTITLE=Brad Davis - This World Ain't No Child
DYEAR=2004
DGENRE=Country
TTITLE0=All I Need To Know
TTITLE1=Ain't That Just Like Love
TTITLE2=Love You Don't Know
TTITLE3=I'm Not Through Loving You
TTITLE4=Shadows
TTITLE5=This World Ain't No Child
TTITLE6=La Crosse
TTITLE7=You and I
TTITLE8=Feet Of Clay
TTITLE9=True Love
TTITLE10=Holy River
TTITLE11=Falling
TTITLE12=video
EXTD=
EXTT0=
EXTT1=
EXTT2=
EXTT3=
EXTT4=
EXTT5=
EXTT6=
EXTT7=
EXTT8=
EXTT9=
EXTT10=
EXTT11=
EXTT12=
PLAYORDER=
